<svg width="676" height="214" viewBox="0 0 676 214" fill="none" xmlns="http://www.w3.org/2000/svg">
<rect width="234.56" height="213.899" fill="black" fill-opacity="0.01"/>
<path d="M20.6607 38.8906H234.56V213.899H33.3002C26.3196 213.899 20.6607 208.24 20.6607 201.26V38.8906Z" fill="#67074C"/>
<path d="M37.9185 0H204.663C211.643 0 217.302 5.6589 217.302 12.6395V175.008H37.9185V0Z" fill="#A90C7C"/>
<path d="M0 22.8483L37.9185 0V175.008L0 197.857V22.8483Z" fill="#D44FAE"/>
<path d="M163.338 56.391H125.558V79.5867H157.504V96.8098H125.558V136.117H101.251V38.8901H125.558H163.338V56.391Z" fill="white"/>
<path d="M329.3 62.7H299.9V83.5H325.1V93.2H299.9V123H287.3V53H299.9H329.3V62.7ZM348.89 49V110.6C348.89 113.5 349.79 114.7 352.49 114.7C353.09 114.7 353.79 114.6 354.59 114.5L355.89 123C353.89 123.7 351.59 124.3 348.79 124.3C341.39 124.3 336.49 120.3 336.49 112.4V49H348.89ZM408.456 94.3C408.456 96.5 408.256 98.7 408.056 100.3H373.756C373.956 110.5 378.656 115 387.856 115C393.656 115 397.956 112.9 402.056 110.6L406.456 118C401.956 121.4 394.756 124.3 387.056 124.3C370.856 124.3 361.656 113.6 361.656 99.2V93.7C361.656 79.3 370.656 68.4 385.456 68.4C399.956 68.4 408.456 77.4 408.456 94.3ZM397.356 92.2V91.7C397.356 82.5 393.256 77.5 385.556 77.5C377.956 77.5 373.956 82.5 373.756 92.2H397.356ZM443.837 96.3L461.237 123H447.537L436.337 103.3L424.437 123H411.437L428.637 96.4L412.037 69.7H425.537L436.337 89.8L447.437 69.7H460.437L443.837 96.3ZM489.745 124.3C477.045 124.3 469.045 120.3 463.545 115.2L469.845 107.7C475.745 111.6 479.645 114.3 489.145 114.3C499.445 114.3 503.945 109.2 503.945 104.5V103.2C503.945 98.2 501.545 95.7 493.245 93L482.945 89.6C471.145 85.8 466.445 79.6 466.445 71.9V69.6C466.445 60.1 475.445 51.7 491.445 51.7C502.045 51.7 509.745 55 516.045 60.8L509.845 67.7C503.445 62.9 498.945 61.3 491.945 61.3C482.845 61.3 479.045 65.6 479.045 69.5V71.2C479.045 74.7 482.245 77.6 490.245 80.1L499.545 83.1C509.145 86.1 516.445 91.2 516.445 101.9V104.6C516.445 116.4 505.445 124.3 489.745 124.3ZM534.997 61.5C530.897 61.5 527.497 58.2 527.497 54.1C527.497 49.9 530.897 46.6 534.997 46.6C539.197 46.6 542.497 49.9 542.497 54.1C542.497 58.2 539.197 61.5 534.997 61.5ZM521.297 69.8H541.697V123H529.297V79H521.297V69.8ZM611.835 68.4C620.635 68.4 628.235 74.7 628.235 86.2V123H615.935V87.1C615.935 80.4 612.635 77.8 608.635 77.8C604.735 77.8 601.435 80.3 598.535 84.5V123H586.135V87.1C586.135 80.4 582.935 77.8 578.935 77.8C574.935 77.8 571.735 80.3 568.735 84.5V123H556.435V69.8H567.035L567.735 75.3C571.435 70.9 576.135 68.4 582.135 68.4C587.935 68.4 593.335 71.2 596.235 76.4C600.335 71.3 605.335 68.4 611.835 68.4Z" fill="white"/>
</svg>
